<svg width="27" height="21" viewBox="0 0 27 21" fill="none" xmlns="http://www.w3.org/2000/svg">
<path d="M11.4884 18.3799H16.2608V13.3086C16.2608 13.1035 16.1993 12.9395 16.0763 12.8164C15.9532 12.6934 15.7892 12.6318 15.5841 12.6318H12.1739C11.9688 12.6318 11.8018 12.6934 11.6729 12.8164C11.5499 12.9395 11.4884 13.1035 11.4884 13.3086V18.3799ZM5.98642 18.0459V11.3311L13.3341 5.16992C13.6915 4.86523 14.0518 4.86523 14.4151 5.16992L21.7628 11.3311V18.0459C21.7628 18.6787 21.5753 19.1738 21.2003 19.5312C20.8253 19.8887 20.3155 20.0674 19.671 20.0674H8.07822C7.42783 20.0674 6.91513 19.8887 6.54013 19.5312C6.17099 19.1738 5.98642 18.6787 5.98642 18.0459ZM4.04404 10.9443C3.76279 10.9443 3.54013 10.8623 3.37607 10.6982C3.21786 10.5283 3.13876 10.3291 3.13876 10.1006C3.13876 9.8252 3.25302 9.59375 3.48154 9.40625L12.6397 1.71582C13.0206 1.39355 13.4308 1.23242 13.8702 1.23242C14.3155 1.23242 14.7257 1.39355 15.1007 1.71582L24.2589 9.40625C24.4933 9.59375 24.6104 9.8252 24.6104 10.1006C24.6104 10.3291 24.5284 10.5283 24.3643 10.6982C24.2061 10.8623 23.9864 10.9443 23.7052 10.9443C23.5704 10.9443 23.4415 10.915 23.3185 10.8564C23.2013 10.792 23.0899 10.7158 22.9845 10.6279L14.2481 3.29785C14.131 3.19824 14.005 3.14844 13.8702 3.14844C13.7413 3.14844 13.6183 3.19824 13.5011 3.29785L4.77353 10.6279C4.6622 10.7158 4.54501 10.792 4.42197 10.8564C4.30478 10.915 4.1788 10.9443 4.04404 10.9443ZM19.4513 5.84668V3.80762C19.4513 3.6084 19.5099 3.4502 19.627 3.33301C19.7501 3.21582 19.9083 3.15723 20.1017 3.15723H21.2882C21.4874 3.15723 21.6456 3.21582 21.7628 3.33301C21.88 3.4502 21.9386 3.6084 21.9386 3.80762V7.93848L19.4513 5.84668Z" fill="#FFFFF9"/>
</svg>
