<svg width="26" height="21" viewBox="0 0 26 21" fill="none" xmlns="http://www.w3.org/2000/svg">
<path d="M10.4512 18.7842V13.2383C10.4512 13.0332 10.5127 12.8691 10.6357 12.7461C10.7646 12.6172 10.9346 12.5527 11.1455 12.5527H14.8545C15.0654 12.5527 15.2295 12.6172 15.3467 12.7461C15.4697 12.8691 15.5312 13.0332 15.5312 13.2383V18.7842H10.4512ZM3.16504 10.9443C2.88379 10.9443 2.66113 10.8623 2.49707 10.6982C2.33887 10.5283 2.25977 10.3291 2.25977 10.1006C2.25977 9.8252 2.37402 9.59375 2.60254 9.40625L11.7607 1.71582C12.1416 1.39355 12.5518 1.23242 12.9912 1.23242C13.4365 1.23242 13.8467 1.39355 14.2217 1.71582L23.3799 9.40625C23.6143 9.59375 23.7314 9.8252 23.7314 10.1006C23.7314 10.3291 23.6494 10.5283 23.4854 10.6982C23.3271 10.8623 23.1074 10.9443 22.8262 10.9443C22.6914 10.9443 22.5625 10.915 22.4395 10.8564C22.3223 10.792 22.2109 10.7158 22.1055 10.6279L13.3691 3.29785C13.252 3.19824 13.126 3.14844 12.9912 3.14844C12.8623 3.14844 12.7393 3.19824 12.6221 3.29785L3.89453 10.6279C3.7832 10.7158 3.66602 10.792 3.54297 10.8564C3.42578 10.915 3.2998 10.9443 3.16504 10.9443ZM18.5723 5.84668V3.80762C18.5723 3.6084 18.6309 3.4502 18.748 3.33301C18.8711 3.21582 19.0293 3.15723 19.2227 3.15723H20.4092C20.6084 3.15723 20.7666 3.21582 20.8838 3.33301C21.001 3.4502 21.0596 3.6084 21.0596 3.80762V7.93848L18.5723 5.84668ZM7.0498 20.0674C6.38184 20.0674 5.86035 19.8857 5.48535 19.5225C5.11621 19.165 4.93164 18.6582 4.93164 18.002V8.21973L6.6543 7.05078V17.4834C6.6543 17.7588 6.72754 17.9697 6.87402 18.1162C7.02637 18.2627 7.2373 18.3359 7.50684 18.3359H18.4844C18.7598 18.3359 18.9678 18.2627 19.1084 18.1162C19.2549 17.9697 19.3281 17.7588 19.3281 17.4834V7.04199L21.0596 8.21973V18.002C21.0596 18.6523 20.8721 19.1592 20.4971 19.5225C20.1279 19.8857 19.6094 20.0674 18.9414 20.0674H7.0498Z" fill="#FFFFF9"/>
</svg>
