<svg width="23" height="21" viewBox="0 0 23 21" fill="none" xmlns="http://www.w3.org/2000/svg">
<path d="M9.22925 9.37988L3.70972 3.86914C3.57495 3.72852 3.5105 3.56152 3.51636 3.36816C3.52808 3.1748 3.60132 3.01074 3.73608 2.87598C3.87085 2.74121 4.03491 2.66797 4.22827 2.65625C4.42749 2.64453 4.59741 2.70898 4.73804 2.84961L10.2576 8.36035C10.3982 8.50098 10.4626 8.6709 10.4509 8.87012C10.4392 9.06348 10.366 9.22754 10.2312 9.3623C10.0906 9.49707 9.92358 9.57031 9.73022 9.58203C9.54272 9.59375 9.37573 9.52637 9.22925 9.37988ZM4.73804 9.37988C4.59741 9.52637 4.43042 9.59375 4.23706 9.58203C4.0437 9.57031 3.87964 9.49707 3.74487 9.3623C3.60425 9.22754 3.52808 9.06348 3.51636 8.87012C3.50464 8.6709 3.56909 8.50098 3.70972 8.36035L9.23804 2.84961C9.37866 2.70898 9.54565 2.64453 9.73901 2.65625C9.93823 2.66797 10.1052 2.74121 10.24 2.87598C10.3748 3.01074 10.448 3.1748 10.4597 3.36816C10.4714 3.56152 10.407 3.72852 10.2664 3.86914L4.73804 9.37988ZM13.2546 9.63477C12.9148 9.63477 12.6482 9.55566 12.4548 9.39746C12.2673 9.23926 12.1589 9.03418 12.1296 8.78223C12.1062 8.52441 12.1707 8.25781 12.323 7.98242L14.9597 3.25391C15.1121 2.97852 15.3083 2.79688 15.5486 2.70898C15.7888 2.61523 16.0291 2.61523 16.2693 2.70898C16.5095 2.79688 16.7087 2.97852 16.8669 3.25391L19.5125 7.98242C19.6648 8.26367 19.7263 8.53027 19.697 8.78223C19.6677 9.03418 19.5564 9.23926 19.363 9.39746C19.1697 9.55566 18.906 9.63477 18.572 9.63477H13.2546ZM14.0281 18.7666C13.3894 18.7666 12.9148 18.6084 12.6042 18.292C12.2937 17.9814 12.1384 17.498 12.1384 16.8418V13.1768C12.1384 12.5264 12.2937 12.043 12.6042 11.7266C12.9148 11.4102 13.3894 11.252 14.0281 11.252H17.7546C18.3933 11.252 18.8679 11.4102 19.1785 11.7266C19.4949 12.043 19.6531 12.5264 19.6531 13.1768V16.8418C19.6531 17.498 19.4949 17.9814 19.1785 18.292C18.8679 18.6084 18.3933 18.7666 17.7546 18.7666H14.0281ZM6.98804 18.8984C6.27319 18.8984 5.6228 18.7227 5.03687 18.3711C4.45093 18.0254 3.98218 17.5596 3.63062 16.9736C3.28491 16.3877 3.11206 15.7373 3.11206 15.0225C3.11206 14.3135 3.28491 13.666 3.63062 13.0801C3.98218 12.4941 4.45093 12.0283 5.03687 11.6826C5.6228 11.3369 6.27319 11.1641 6.98804 11.1641C7.69702 11.1641 8.34448 11.3369 8.93042 11.6826C9.51636 12.0283 9.98218 12.4941 10.3279 13.0801C10.6736 13.666 10.8464 14.3135 10.8464 15.0225C10.8464 15.7373 10.6736 16.3877 10.3279 16.9736C9.98218 17.5596 9.51636 18.0254 8.93042 18.3711C8.34448 18.7227 7.69702 18.8984 6.98804 18.8984Z" fill="#FFFFF9"/>
</svg>
