<svg width="23" height="21" viewBox="0 0 23 21" fill="none" xmlns="http://www.w3.org/2000/svg">
<path d="M8.8584 9.37988L3.33887 3.86914C3.2041 3.72852 3.13965 3.56152 3.14551 3.36816C3.15723 3.1748 3.23047 3.01074 3.36523 2.87598C3.5 2.74121 3.66406 2.66797 3.85742 2.65625C4.05664 2.64453 4.22656 2.70898 4.36719 2.84961L9.88672 8.36035C10.0273 8.50098 10.0918 8.6709 10.0801 8.87012C10.0684 9.06348 9.99512 9.22754 9.86035 9.3623C9.71973 9.49707 9.55273 9.57031 9.35938 9.58203C9.17188 9.59375 9.00488 9.52637 8.8584 9.37988ZM4.36719 9.37988C4.22656 9.52637 4.05957 9.59375 3.86621 9.58203C3.67285 9.57031 3.50879 9.49707 3.37402 9.3623C3.2334 9.22754 3.15723 9.06348 3.14551 8.87012C3.13379 8.6709 3.19824 8.50098 3.33887 8.36035L8.86719 2.84961C9.00781 2.70898 9.1748 2.64453 9.36816 2.65625C9.56738 2.66797 9.73438 2.74121 9.86914 2.87598C10.0039 3.01074 10.0771 3.1748 10.0889 3.36816C10.1006 3.56152 10.0361 3.72852 9.89551 3.86914L4.36719 9.37988ZM12.8838 9.63477C12.5439 9.63477 12.2773 9.55566 12.084 9.39746C11.8965 9.23926 11.7881 9.03418 11.7588 8.78223C11.7354 8.52441 11.7998 8.25781 11.9521 7.98242L14.5889 3.25391C14.7412 2.97852 14.9375 2.79688 15.1777 2.70898C15.418 2.61523 15.6582 2.61523 15.8984 2.70898C16.1387 2.79688 16.3379 2.97852 16.4961 3.25391L19.1416 7.98242C19.2939 8.26367 19.3555 8.53027 19.3262 8.78223C19.2969 9.03418 19.1855 9.23926 18.9922 9.39746C18.7988 9.55566 18.5352 9.63477 18.2012 9.63477H12.8838ZM13.5869 8.26367H17.498C17.5684 8.26367 17.6123 8.24609 17.6299 8.21094C17.6533 8.16992 17.6504 8.11719 17.6211 8.05273L15.6611 4.52832C15.626 4.46973 15.585 4.44043 15.5381 4.44043C15.4912 4.44043 15.4502 4.46973 15.415 4.52832L13.4639 8.05273C13.4346 8.11719 13.4316 8.16992 13.4551 8.21094C13.4785 8.24609 13.5225 8.26367 13.5869 8.26367ZM13.6572 18.7666C13.0186 18.7666 12.5439 18.6084 12.2334 18.292C11.9229 17.9814 11.7676 17.498 11.7676 16.8418V13.1768C11.7676 12.5264 11.9229 12.043 12.2334 11.7266C12.5439 11.4102 13.0186 11.252 13.6572 11.252H17.3838C18.0225 11.252 18.4971 11.4102 18.8076 11.7266C19.124 12.043 19.2822 12.5264 19.2822 13.1768V16.8418C19.2822 17.498 19.124 17.9814 18.8076 18.292C18.4971 18.6084 18.0225 18.7666 17.3838 18.7666H13.6572ZM13.666 17.3164H17.3838C17.5361 17.3164 17.6475 17.2783 17.7178 17.2021C17.7939 17.126 17.832 17.0088 17.832 16.8506V13.1768C17.832 13.0186 17.7939 12.9014 17.7178 12.8252C17.6475 12.7432 17.5361 12.7021 17.3838 12.7021H13.666C13.5137 12.7021 13.3994 12.7432 13.3232 12.8252C13.2529 12.9014 13.2178 13.0186 13.2178 13.1768V16.8506C13.2178 17.0088 13.2529 17.126 13.3232 17.2021C13.3994 17.2783 13.5137 17.3164 13.666 17.3164ZM6.61719 18.8984C5.90234 18.8984 5.25195 18.7227 4.66602 18.3711C4.08008 18.0254 3.61133 17.5596 3.25977 16.9736C2.91406 16.3877 2.74121 15.7373 2.74121 15.0225C2.74121 14.3135 2.91406 13.666 3.25977 13.0801C3.61133 12.4941 4.08008 12.0283 4.66602 11.6826C5.25195 11.3369 5.90234 11.1641 6.61719 11.1641C7.32617 11.1641 7.97363 11.3369 8.55957 11.6826C9.14551 12.0283 9.61133 12.4941 9.95703 13.0801C10.3027 13.666 10.4756 14.3135 10.4756 15.0225C10.4756 15.7373 10.3027 16.3877 9.95703 16.9736C9.61133 17.5596 9.14551 18.0254 8.55957 18.3711C7.97363 18.7227 7.32617 18.8984 6.61719 18.8984ZM6.61719 17.4482C7.0625 17.4482 7.4668 17.3398 7.83008 17.123C8.19336 16.9062 8.4834 16.6133 8.7002 16.2441C8.91699 15.875 9.02539 15.4678 9.02539 15.0225C9.02539 14.5771 8.91699 14.1729 8.7002 13.8096C8.4834 13.4463 8.19336 13.1562 7.83008 12.9395C7.4668 12.7168 7.0625 12.6055 6.61719 12.6055C6.17188 12.6055 5.76465 12.7168 5.39551 12.9395C5.02637 13.1562 4.7334 13.4463 4.5166 13.8096C4.2998 14.1729 4.19141 14.5771 4.19141 15.0225C4.19141 15.4678 4.2998 15.875 4.5166 16.2441C4.7334 16.6133 5.02637 16.9062 5.39551 17.123C5.76465 17.3398 6.17188 17.4482 6.61719 17.4482Z" fill="#FFFFF9"/>
</svg>
