<svg width="21" height="22" viewBox="0 0 21 22" fill="none" xmlns="http://www.w3.org/2000/svg">
<path d="M9.90015 12.4277C10.1228 12.4277 10.3337 12.3486 10.533 12.1904C10.7322 12.0322 10.8318 11.7891 10.8318 11.4609L13.3103 9.63281C13.4333 9.69727 13.5652 9.72949 13.7058 9.72949C13.9695 9.72949 14.1892 9.6416 14.365 9.46582C14.5466 9.28418 14.6375 9.06738 14.6375 8.81543C14.6375 8.55176 14.5466 8.3291 14.365 8.14746C14.1892 7.96582 13.9695 7.875 13.7058 7.875C13.5417 7.875 13.3865 7.91895 13.24 8.00684C13.0994 8.09473 12.9851 8.21484 12.8972 8.36719C12.8152 8.51953 12.7859 8.69824 12.8093 8.90332L10.3572 10.7051C10.2224 10.623 10.0701 10.582 9.90015 10.582C9.68921 10.582 9.50171 10.6523 9.33765 10.793L7.23706 9.71191C7.23706 9.43652 7.14624 9.21387 6.9646 9.04395C6.78296 8.86816 6.56616 8.78027 6.31421 8.78027C6.0564 8.78027 5.83667 8.87109 5.65503 9.05273C5.47925 9.23438 5.39136 9.4541 5.39136 9.71191C5.39136 9.96387 5.47925 10.1807 5.65503 10.3623C5.83667 10.5439 6.0564 10.6348 6.31421 10.6348C6.50171 10.6348 6.67163 10.582 6.82397 10.4766L8.99487 11.6104C9.01245 11.8506 9.10913 12.0469 9.28491 12.1992C9.46655 12.3516 9.67163 12.4277 9.90015 12.4277ZM6.08569 15.3018H13.9519C14.116 15.3018 14.2537 15.2461 14.365 15.1348C14.4822 15.0176 14.5408 14.874 14.5408 14.7041C14.5408 14.5459 14.4822 14.4111 14.365 14.2998C14.2537 14.1885 14.116 14.1328 13.9519 14.1328H6.08569C5.91577 14.1328 5.77222 14.1885 5.65503 14.2998C5.5437 14.4111 5.48804 14.5459 5.48804 14.7041C5.48804 14.874 5.5437 15.0176 5.65503 15.1348C5.77222 15.2461 5.91577 15.3018 6.08569 15.3018ZM6.08569 18.7119H10.6296C10.7878 18.7119 10.9255 18.6533 11.0427 18.5361C11.1599 18.4189 11.2185 18.2783 11.2185 18.1143C11.2185 17.9561 11.1599 17.8213 11.0427 17.71C10.9314 17.5928 10.7937 17.5342 10.6296 17.5342H6.08569C5.91577 17.5342 5.77222 17.5928 5.65503 17.71C5.5437 17.8213 5.48804 17.9561 5.48804 18.1143C5.48804 18.2783 5.5437 18.4189 5.65503 18.5361C5.77222 18.6533 5.91577 18.7119 6.08569 18.7119ZM5.34741 21.876C4.41577 21.876 3.70679 21.6299 3.22046 21.1377C2.73413 20.6455 2.49097 19.9277 2.49097 18.9844V5.67773C2.49097 4.72852 2.7312 4.00781 3.21167 3.51562C3.69214 3.02344 4.38062 2.77734 5.2771 2.77734H5.46167C5.44995 2.81836 5.43823 2.8623 5.42651 2.90918C5.42065 2.95605 5.41772 3.00293 5.41772 3.0498V4.06934C5.41772 4.63184 5.59058 5.09766 5.93628 5.4668C6.28784 5.83008 6.74487 6.01172 7.30737 6.01172H12.7214C13.2839 6.01172 13.738 5.83008 14.0837 5.4668C14.4353 5.09766 14.6111 4.63184 14.6111 4.06934V3.0498C14.6111 3.00293 14.6052 2.95605 14.5935 2.90918C14.5876 2.8623 14.5789 2.81836 14.5671 2.77734H14.7517C15.6482 2.77734 16.3367 3.02344 16.8171 3.51562C17.2976 4.00781 17.5378 4.72852 17.5378 5.67773V18.9844C17.5378 19.9277 17.2947 20.6455 16.8083 21.1377C16.322 21.6299 15.6101 21.876 14.6726 21.876H5.34741ZM7.30737 4.97461C7.03784 4.97461 6.8269 4.89551 6.67456 4.7373C6.52808 4.5791 6.45483 4.35645 6.45483 4.06934V3.14648C6.45483 2.85937 6.52808 2.63672 6.67456 2.47852C6.8269 2.32031 7.03784 2.24121 7.30737 2.24121H8.05444C8.08374 1.73145 8.28589 1.29785 8.66089 0.94043C9.03589 0.577148 9.48706 0.395508 10.0144 0.395508C10.5359 0.395508 10.9841 0.577148 11.3591 0.94043C11.74 1.29785 11.9451 1.73145 11.9744 2.24121H12.7214C12.991 2.24121 13.199 2.32031 13.3455 2.47852C13.4978 2.63672 13.574 2.85937 13.574 3.14648V4.06934C13.574 4.35645 13.4978 4.5791 13.3455 4.7373C13.199 4.89551 12.991 4.97461 12.7214 4.97461H7.30737ZM10.0144 3.09375C10.2312 3.09375 10.4128 3.01758 10.5593 2.86523C10.7117 2.70703 10.7878 2.52539 10.7878 2.32031C10.7878 2.10352 10.7117 1.91895 10.5593 1.7666C10.4128 1.61426 10.2312 1.53809 10.0144 1.53809C9.79761 1.53809 9.61304 1.61426 9.46069 1.7666C9.31421 1.91895 9.24097 2.10352 9.24097 2.32031C9.24097 2.52539 9.31421 2.70703 9.46069 2.86523C9.61304 3.01758 9.79761 3.09375 10.0144 3.09375Z" fill="#FFFFF9"/>
</svg>
