<svg width="21" height="22" viewBox="0 0 21 22" fill="none" xmlns="http://www.w3.org/2000/svg">
<path d="M6.34741 14.2295C6.18921 14.2295 6.05444 14.1768 5.94312 14.0713C5.83179 13.96 5.77612 13.8223 5.77612 13.6582C5.77612 13.5059 5.83179 13.377 5.94312 13.2715C6.05444 13.1602 6.18921 13.1045 6.34741 13.1045H13.9236C14.0876 13.1045 14.2224 13.1602 14.3279 13.2715C14.4392 13.377 14.4949 13.5059 14.4949 13.6582C14.4949 13.8223 14.4392 13.96 14.3279 14.0713C14.2224 14.1768 14.0876 14.2295 13.9236 14.2295H6.34741ZM6.34741 17.5078C6.18921 17.5078 6.05444 17.4521 5.94312 17.3408C5.83179 17.2295 5.77612 17.0947 5.77612 16.9365C5.77612 16.7842 5.83179 16.6553 5.94312 16.5498C6.05444 16.4385 6.18921 16.3828 6.34741 16.3828H10.7244C10.8826 16.3828 11.0144 16.4385 11.1199 16.5498C11.2312 16.6553 11.2869 16.7842 11.2869 16.9365C11.2869 17.0947 11.2312 17.2295 11.1199 17.3408C11.0085 17.4521 10.8767 17.5078 10.7244 17.5078H6.34741ZM6.57593 9.69434C6.32397 9.69434 6.11304 9.60645 5.94312 9.43066C5.77319 9.25488 5.68823 9.04688 5.68823 8.80664C5.68823 8.55469 5.77319 8.34375 5.94312 8.17383C6.11304 8.00391 6.32397 7.91895 6.57593 7.91895C6.81616 7.91895 7.02417 8.00391 7.19995 8.17383C7.37573 8.34375 7.46362 8.55469 7.46362 8.80664C7.46362 9.04688 7.37573 9.25488 7.19995 9.43066C7.02417 9.60645 6.81616 9.69434 6.57593 9.69434ZM6.18042 9.0791L6.61108 8.34961L10.3464 10.292L9.90698 11.0215L6.18042 9.0791ZM10.03 11.4258C9.78394 11.4258 9.57593 11.3379 9.40601 11.1621C9.23608 10.9863 9.15112 10.7783 9.15112 10.5381C9.15112 10.292 9.23608 10.084 9.40601 9.91406C9.57593 9.73828 9.78394 9.65039 10.03 9.65039C10.2761 9.65039 10.4841 9.73828 10.6541 9.91406C10.8298 10.084 10.9177 10.292 10.9177 10.5381C10.9177 10.7783 10.8298 10.9863 10.6541 11.1621C10.4841 11.3379 10.2761 11.4258 10.03 11.4258ZM9.83667 10.2393L13.5369 7.51465L14.0291 8.2002L10.3201 10.9248L9.83667 10.2393ZM13.6951 8.82422C13.449 8.82422 13.241 8.73633 13.071 8.56055C12.9011 8.38477 12.8162 8.17676 12.8162 7.93652C12.8162 7.69043 12.9011 7.48242 13.071 7.3125C13.241 7.13672 13.449 7.04883 13.6951 7.04883C13.9412 7.04883 14.1492 7.13672 14.3191 7.3125C14.4949 7.48242 14.5828 7.69043 14.5828 7.93652C14.5828 8.17676 14.4949 8.38477 14.3191 8.56055C14.1492 8.73633 13.9412 8.82422 13.6951 8.82422ZM5.46851 21.876C4.53687 21.876 3.82788 21.6299 3.34155 21.1377C2.85522 20.6455 2.61206 19.9277 2.61206 18.9844V5.68652C2.61206 4.75488 2.84644 4.04004 3.31519 3.54199C3.78979 3.03809 4.4812 2.78613 5.3894 2.78613H5.59155C5.57397 2.83887 5.56226 2.89746 5.5564 2.96191C5.55054 3.02051 5.54761 3.08203 5.54761 3.14648V3.96387C5.54761 4.16895 5.56812 4.33887 5.60913 4.47363H5.43335C5.05835 4.47363 4.77417 4.58496 4.58081 4.80762C4.39331 5.03027 4.29956 5.3291 4.29956 5.7041V18.9668C4.29956 19.3594 4.40503 19.6611 4.61597 19.8721C4.8269 20.083 5.13745 20.1885 5.54761 20.1885H14.7234C15.1335 20.1885 15.4441 20.083 15.655 19.8721C15.866 19.6611 15.9714 19.3594 15.9714 18.9668V5.7041C15.9714 5.3291 15.8748 5.03027 15.6814 4.80762C15.4939 4.58496 15.2156 4.47363 14.8464 4.47363H14.6531C14.7 4.33887 14.7234 4.16895 14.7234 3.96387V3.14648C14.7234 3.08203 14.7205 3.02051 14.7146 2.96191C14.7087 2.89746 14.697 2.83887 14.6794 2.78613H14.8816C15.7898 2.78613 16.4783 3.03809 16.947 3.54199C17.4216 4.04004 17.6589 4.75488 17.6589 5.68652V18.9844C17.6589 19.9277 17.4158 20.6455 16.9294 21.1377C16.4431 21.6299 15.7312 21.876 14.7937 21.876H5.46851ZM7.42847 4.97461C7.15894 4.97461 6.948 4.89551 6.79565 4.7373C6.64917 4.5791 6.57593 4.35645 6.57593 4.06934V3.14648C6.57593 2.85937 6.64917 2.63672 6.79565 2.47852C6.948 2.32031 7.15894 2.24121 7.42847 2.24121H8.17554C8.20483 1.73145 8.40698 1.29785 8.78198 0.94043C9.15698 0.577148 9.60815 0.395508 10.1355 0.395508C10.657 0.395508 11.1052 0.577148 11.4802 0.94043C11.8611 1.29785 12.0662 1.73145 12.0955 2.24121H12.8425C13.1121 2.24121 13.3201 2.32031 13.4666 2.47852C13.6189 2.63672 13.6951 2.85937 13.6951 3.14648V4.06934C13.6951 4.35645 13.6189 4.5791 13.4666 4.7373C13.3201 4.89551 13.1121 4.97461 12.8425 4.97461H7.42847ZM10.1355 3.09375C10.3523 3.09375 10.5339 3.01758 10.6804 2.86523C10.8328 2.70703 10.9089 2.52539 10.9089 2.32031C10.9089 2.10352 10.8328 1.91895 10.6804 1.7666C10.5339 1.61426 10.3523 1.53809 10.1355 1.53809C9.9187 1.53809 9.73413 1.61426 9.58179 1.7666C9.4353 1.91895 9.36206 2.10352 9.36206 2.32031C9.36206 2.52539 9.4353 2.70703 9.58179 2.86523C9.73413 3.01758 9.9187 3.09375 10.1355 3.09375Z" fill="#FFFFF9"/>
</svg>
